<?xml version="1.0" standalone="no"?><!DOCTYPE svg PUBLIC "-//W3C//DTD SVG 1.1//EN" "http://www.w3.org/Graphics/SVG/1.1/DTD/svg11.dtd"><svg width="100%" height="100%" viewBox="0 0 32 32" version="1.1" xmlns="http://www.w3.org/2000/svg" xmlns:xlink="http://www.w3.org/1999/xlink" xml:space="preserve" style="fill-rule:evenodd;clip-rule:evenodd;stroke-linejoin:round;stroke-miterlimit:1.41421;"><g id="sun_x5F_stroke"><path d="M15.962,10.416c1.795,0 3.259,1.462 3.259,3.258c0,1.797 -1.464,3.259 -3.259,3.259c-1.794,0 -3.258,-1.462 -3.258,-3.259c0,-1.796 1.464,-3.258 3.258,-3.258M15.962,7.157c-3.599,0 -6.517,2.918 -6.517,6.517c0,3.6 2.918,6.518 6.517,6.518c3.6,0 6.518,-2.918 6.518,-6.518c0,-3.599 -2.918,-6.517 -6.518,-6.517Z" style="fill:#ffb900;fill-rule:nonzero;"/><circle cx="15.962" cy="2.269" r="1.629" style="fill:#ffb900;"/><circle cx="7.816" cy="5.528" r="1.629" style="fill:#ffb900;"/><path d="M4.557,12.044c0.9,0 1.629,0.729 1.629,1.629c0,0.902 -0.729,1.629 -1.629,1.629c-0.9,0 -1.629,-0.727 -1.629,-1.629c0,-0.9 0.729,-1.629 1.629,-1.629Z" style="fill:#ffb900;fill-rule:nonzero;"/><circle cx="7.816" cy="21.821" r="1.629" style="fill:#ffb900;"/><path d="M14.333,25.08c0,-0.904 0.729,-1.629 1.629,-1.629c0.904,0 1.63,0.725 1.63,1.629c0,0.898 -0.726,1.629 -1.63,1.629c-0.9,0 -1.629,-0.731 -1.629,-1.629Z" style="fill:#ffb900;fill-rule:nonzero;"/><rect x="22.327" y="20.033" width="3.58" height="3.576" style="fill:#ffb900;fill-rule:nonzero;"/><path d="M27.365,15.302c-0.897,0 -1.627,-0.728 -1.627,-1.628c0,-0.903 0.726,-1.629 1.63,-1.629c0.898,0 1.629,0.728 1.629,1.628c0,0.902 -0.731,1.631 -1.632,1.629Z" style="fill:#ffb900;fill-rule:nonzero;"/><path d="M25.268,6.681c-0.637,0.635 -1.668,0.635 -2.304,0c-0.637,-0.639 -0.637,-1.667 0,-2.305c0.636,-0.635 1.667,-0.636 2.304,0.001c0.636,0.637 0.636,1.67 0,2.304Z" style="fill:#ffb900;fill-rule:nonzero;"/></g></svg>
